HIERARCHY
ROOT Hips
{
	OFFSET 0.000000 0.000000 0.000000
	CHANNELS 6 Xposition Yposition Zposition Xrotation Yrotation Zrotation
	JOINT C_ctrl
	{
		OFFSET 0.000000 35.040482 -0.000011
		CHANNELS 3 Xrotation Yrotation Zrotation
		JOINT Bip01
		{
			OFFSET -41.537640 41.789009 -0.000007
			CHANNELS 3 Xrotation Yrotation Zrotation
			JOINT Bip01_Pelvis
			{
				OFFSET -2.462887 0.000000 0.000000
				CHANNELS 3 Xrotation Yrotation Zrotation
				JOINT BN_Tail_01
				{
					OFFSET -11.399368 7.351341 -0.000013
					CHANNELS 3 Xrotation Yrotation Zrotation
					JOINT BN_Tail_02
					{
						OFFSET -11.365196 -0.343025 0.000012
						CHANNELS 3 Xrotation Yrotation Zrotation
						JOINT BN_Tail_03
						{
							OFFSET -15.076256 -0.454979 0.000017
							CHANNELS 3 Xrotation Yrotation Zrotation
							JOINT BN_Tail_04
							{
								OFFSET -17.395691 -0.525002 0.000016
								CHANNELS 3 Xrotation Yrotation Zrotation
								JOINT BN_Tail_05
								{
									OFFSET -16.699837 -0.504005 0.000016
									CHANNELS 3 Xrotation Yrotation Zrotation
									End Site
									{
										OFFSET 0.503998 -16.699829 0.000067
									}
								}
							}
						}
					}
				}
				JOINT Bip01_Spine
				{
					OFFSET 8.297798 5.916809 -0.000020
					CHANNELS 3 Xrotation Yrotation Zrotation
					JOINT Bip01_R_Thigh
					{
						OFFSET -8.297779 -5.916794 10.541781
						CHANNELS 3 Xrotation Yrotation Zrotation
						JOINT Bip01_R_Calf
						{
							OFFSET 5.631542 -22.906792 0.862690
							CHANNELS 3 Xrotation Yrotation Zrotation
							JOINT Bip01_R_HorseLink
							{
								OFFSET -16.984341 -19.231926 -3.555767
								CHANNELS 3 Xrotation Yrotation Zrotation
								JOINT Bip01_R_Foot
								{
									OFFSET 4.290367 -24.783146 0.578056
									CHANNELS 3 Xrotation Yrotation Zrotation
									JOINT Bip01_R_Toe0
									{
										OFFSET 3.561211 -5.815116 0.760802
										CHANNELS 3 Xrotation Yrotation Zrotation
										JOINT Bip01_R_Toe0Nub
										{
											OFFSET 16.135469 0.002017 1.534789
											CHANNELS 3 Xrotation Yrotation Zrotation
											End Site
											{
												OFFSET -0.000002 16.208284 -0.000056
											}
										}
									}
								}
							}
						}
					}
					JOINT Bip01_L_Thigh
					{
						OFFSET -8.297813 -5.916832 -10.541739
						CHANNELS 3 Xrotation Yrotation Zrotation
						JOINT Bip01_L_Calf
						{
							OFFSET 5.631535 -22.906792 -0.862625
							CHANNELS 3 Xrotation Yrotation Zrotation
							JOINT Bip01_L_HorseLink
							{
								OFFSET -16.984318 -19.231949 3.555875
								CHANNELS 3 Xrotation Yrotation Zrotation
								JOINT Bip01_L_Foot
								{
									OFFSET 4.290367 -24.783169 -0.577965
									CHANNELS 3 Xrotation Yrotation Zrotation
									JOINT Bip01_L_Toe0
									{
										OFFSET 3.561245 -5.815111 -0.760799
										CHANNELS 3 Xrotation Yrotation Zrotation
										JOINT Bip01_L_Toe0Nub
										{
											OFFSET 6.574303 -0.000005 -1.538561
											CHANNELS 3 Xrotation Yrotation Zrotation
											End Site
											{
												OFFSET 0.000004 -6.751935 0.000023
											}
										}
									}
								}
							}
						}
					}
					JOINT Bip01_Spine1
					{
						OFFSET 20.556803 -4.626213 -0.000025
						CHANNELS 3 Xrotation Yrotation Zrotation
						JOINT Saddle
						{
							OFFSET 17.608810 18.174690 -0.000143
							CHANNELS 3 Xrotation Yrotation Zrotation
							End Site
							{
								OFFSET -0.000063 -0.000061 -22.448387
							}
						}
						JOINT BN_center
						{
							OFFSET 10.743275 -13.417107 -0.172041
							CHANNELS 3 Xrotation Yrotation Zrotation
							End Site
							{
								OFFSET 22.434088 0.553078 -0.579614
							}
						}
						JOINT Bip01_Spine2
						{
							OFFSET 24.765072 -2.054115 -0.000032
							CHANNELS 3 Xrotation Yrotation Zrotation
							JOINT Handle
							{
								OFFSET 63.735676 16.430748 -16.052464
								CHANNELS 3 Xrotation Yrotation Zrotation
								JOINT IK_Chain01
								{
									OFFSET -4.713058 -6.020439 0.185448
									CHANNELS 3 Xrotation Yrotation Zrotation
									End Site
									{
										OFFSET -0.000023 -0.000023 -7.648071
									}
								}
							}
							JOINT BN_hair04_01
							{
								OFFSET 1.987491 16.256981 -2.049672
								CHANNELS 3 Xrotation Yrotation Zrotation
								JOINT BN_hair04_02
								{
									OFFSET -1.318762 -3.831451 -6.174704
									CHANNELS 3 Xrotation Yrotation Zrotation
									JOINT BN_hair04_03
									{
										OFFSET -0.827490 -5.886627 -5.656666
										CHANNELS 3 Xrotation Yrotation Zrotation
										End Site
										{
											OFFSET -2.658262 5.010620 -5.929780
										}
									}
								}
							}
							JOINT Bip01_Neck
							{
								OFFSET 25.574577 9.433014 -0.000084
								CHANNELS 3 Xrotation Yrotation Zrotation
								JOINT Bip01_R_Clavicle
								{
									OFFSET -16.535652 0.011192 6.705692
									CHANNELS 3 Xrotation Yrotation Zrotation
									JOINT Bip01_R_UpperArm
									{
										OFFSET 20.272621 -12.959984 2.510816
										CHANNELS 3 Xrotation Yrotation Zrotation
										JOINT Bip01_R_Forearm
										{
											OFFSET -13.633509 -15.503704 -0.653585
											CHANNELS 3 Xrotation Yrotation Zrotation
											JOINT Bip01_R_Hand
											{
												OFFSET 2.580030 -27.804676 -1.136415
												CHANNELS 3 Xrotation Yrotation Zrotation
												JOINT Bip01_R_Finger0
												{
													OFFSET -0.281744 -19.659061 -0.398649
													CHANNELS 3 Xrotation Yrotation Zrotation
													JOINT Bip01_Xtra02
													{
														OFFSET 4.152210 -5.712314 0.433813
														CHANNELS 3 Xrotation Yrotation Zrotation
														JOINT Bip01_Xtra02Nub
														{
															OFFSET 15.457960 0.041654 0.507982
															CHANNELS 3 Xrotation Yrotation Zrotation
															End Site
															{
																OFFSET -15.421730 -0.157725 -1.163459
															}
														}
													}
													JOINT Bip01_R_Finger0Nub
													{
														OFFSET 8.362326 -9.718440 -0.143142
														CHANNELS 3 Xrotation Yrotation Zrotation
														End Site
														{
															OFFSET -1.213036 -0.198171 9.872291
														}
													}
												}
											}
										}
									}
								}
								JOINT Bip01_L_Clavicle
								{
									OFFSET -16.535673 0.011162 -6.705583
									CHANNELS 3 Xrotation Yrotation Zrotation
									JOINT Bip01_L_UpperArm
									{
										OFFSET 20.272615 -12.959999 -2.510836
										CHANNELS 3 Xrotation Yrotation Zrotation
										JOINT Bip01_L_Forearm
										{
											OFFSET -13.633495 -15.503681 0.653678
											CHANNELS 3 Xrotation Yrotation Zrotation
											JOINT Bip01_L_Hand
											{
												OFFSET 2.579988 -27.804686 1.136487
												CHANNELS 3 Xrotation Yrotation Zrotation
												JOINT Bip01_L_Finger0
												{
													OFFSET -0.281765 -19.659058 0.398696
													CHANNELS 3 Xrotation Yrotation Zrotation
													JOINT Bip01_Xtra01
													{
														OFFSET 4.083549 -5.738758 -0.666714
														CHANNELS 3 Xrotation Yrotation Zrotation
														JOINT Bip01_Xtra01Nub
														{
															OFFSET 6.758158 -0.395525 -0.023239
															CHANNELS 3 Xrotation Yrotation Zrotation
															End Site
															{
																OFFSET 6.764923 -0.254147 -0.029908
															}
														}
													}
													JOINT Bip01_L_Finger0Nub
													{
														OFFSET -0.012636 -9.629153 0.045740
														CHANNELS 3 Xrotation Yrotation Zrotation
														End Site
														{
															OFFSET 0.988407 0.004791 8.293357
														}
													}
												}
											}
										}
									}
								}
								JOINT BN_hair03_01
								{
									OFFSET -5.894140 16.270622 -2.498433
									CHANNELS 3 Xrotation Yrotation Zrotation
									JOINT BN_hair03_02
									{
										OFFSET -0.189278 -7.800507 -6.219162
										CHANNELS 3 Xrotation Yrotation Zrotation
										JOINT BN_hair03_03
										{
											OFFSET 0.612345 -10.844475 -3.370718
											CHANNELS 3 Xrotation Yrotation Zrotation
											End Site
											{
												OFFSET -2.273296 2.862007 -10.769416
											}
										}
									}
								}
								JOINT Bip01_Neck1
								{
									OFFSET 9.383755 11.908699 -0.000007
									CHANNELS 3 Xrotation Yrotation Zrotation
									JOINT BN_hair02_01
									{
										OFFSET 9.126320 18.808022 -1.420810
										CHANNELS 3 Xrotation Yrotation Zrotation
										JOINT BN_hair02_02
										{
											OFFSET 0.393478 -5.181091 -5.248574
											CHANNELS 3 Xrotation Yrotation Zrotation
											JOINT BN_hair02_03
											{
												OFFSET 0.762280 -8.167076 -0.230047
												CHANNELS 3 Xrotation Yrotation Zrotation
												End Site
												{
													OFFSET -0.025837 -1.251419 -8.109770
												}
											}
										}
									}
									JOINT Bip01_Head
									{
										OFFSET 14.266129 10.475403 -0.000008
										CHANNELS 3 Xrotation Yrotation Zrotation
										JOINT BN_Reins_01
										{
											OFFSET 18.547455 -15.740112 -0.000035
											CHANNELS 3 Xrotation Yrotation Zrotation
											JOINT BN_Reins_02
											{
												OFFSET -5.372810 -5.884506 0.000028
												CHANNELS 3 Xrotation Yrotation Zrotation
												JOINT BN_Reins_03
												{
													OFFSET -6.395866 -15.947449 0.000070
													CHANNELS 3 Xrotation Yrotation Zrotation
													JOINT BN_Halter_R_01
													{
														OFFSET -1.234055 -3.096100 7.096737
														CHANNELS 3 Xrotation Yrotation Zrotation
														End Site
														{
															OFFSET 10.514435 -4.176861 -0.000004
														}
													}
													JOINT BN_Halter_L_01
													{
														OFFSET -1.234062 -3.096146 -7.096726
														CHANNELS 3 Xrotation Yrotation Zrotation
														End Site
														{
															OFFSET -10.514435 4.176865 -0.000000
														}
													}
													JOINT BN_Reins_04
													{
														OFFSET -6.737644 -16.971684 0.000074
														CHANNELS 3 Xrotation Yrotation Zrotation
														JOINT BN_Halter_R_02
														{
															OFFSET -4.688869 -11.781956 7.096771
															CHANNELS 3 Xrotation Yrotation Zrotation
															End Site
															{
																OFFSET 14.669624 -5.827511 -0.000006
															}
														}
														JOINT BN_Halter_L_02
														{
															OFFSET -4.688892 -11.782017 -7.096693
															CHANNELS 3 Xrotation Yrotation Zrotation
															End Site
															{
																OFFSET -14.669624 5.827507 -0.000002
															}
														}
														JOINT BN_Reins_05
														{
															OFFSET -6.822578 -16.971161 0.000074
															CHANNELS 3 Xrotation Yrotation Zrotation
															JOINT BN_Reins_06
															{
																OFFSET -6.140354 -15.095148 0.000066
																CHANNELS 3 Xrotation Yrotation Zrotation
																End Site
																{
																	OFFSET -15.095150 6.140352 -0.000002
																}
															}
														}
													}
												}
											}
										}
										JOINT BN_hair01_01
										{
											OFFSET 8.957344 8.870956 0.112121
											CHANNELS 3 Xrotation Yrotation Zrotation
											JOINT BN_hair01_02
											{
												OFFSET 6.002075 -2.962952 -3.121264
												CHANNELS 3 Xrotation Yrotation Zrotation
												End Site
												{
													OFFSET 5.917702 3.813591 -2.232396
												}
											}
										}
										JOINT BN_Eyebrow_R
										{
											OFFSET 11.795959 -0.430496 4.449781
											CHANNELS 3 Xrotation Yrotation Zrotation
											JOINT Bip01_Xtra06Nub
											{
												OFFSET 2.936661 -0.262573 3.246701
												CHANNELS 3 Xrotation Yrotation Zrotation
												End Site
												{
													OFFSET 2.768745 0.208199 3.394807
												}
											}
										}
										JOINT BN_Eyebrow_L
										{
											OFFSET 11.586395 -0.445618 -4.441728
											CHANNELS 3 Xrotation Yrotation Zrotation
											JOINT Bip01_Xtra05Nub
											{
												OFFSET 3.244698 -0.349442 -4.416700
												CHANNELS 3 Xrotation Yrotation Zrotation
												End Site
												{
													OFFSET 3.053162 0.072495 -4.564033
												}
											}
										}
										JOINT Bip01_R_Ear_01
										{
											OFFSET 7.142960 7.567184 4.311657
											CHANNELS 3 Xrotation Yrotation Zrotation
											JOINT Bip01_Xtra04Nub
											{
												OFFSET 9.464531 9.264214 1.682953
												CHANNELS 3 Xrotation Yrotation Zrotation
												End Site
												{
													OFFSET 8.448181 10.159340 1.910823
												}
											}
										}
										JOINT Bip01__L_Ear_01
										{
											OFFSET 7.214943 7.717056 -4.356771
											CHANNELS 3 Xrotation Yrotation Zrotation
											JOINT Bip01_Xtra03Nub
											{
												OFFSET 9.230225 8.944366 -2.322746
												CHANNELS 3 Xrotation Yrotation Zrotation
												End Site
												{
													OFFSET 8.170288 9.841324 -2.643566
												}
											}
										}
										JOINT Bip01_Jaw
										{
											OFFSET 9.196068 -4.110695 -0.000013
											CHANNELS 3 Xrotation Yrotation Zrotation
											JOINT Bip01_Ponytail1Nub
											{
												OFFSET 10.976463 -21.082108 -0.000053
												CHANNELS 3 Xrotation Yrotation Zrotation
												End Site
												{
													OFFSET 11.247093 -20.938980 0.000113
												}
											}
										}
										JOINT Bip01_HeadNub
										{
											OFFSET 29.954575 -18.249489 -0.000063
											CHANNELS 3 Xrotation Yrotation Zrotation
											End Site
											{
												OFFSET -9.198448 -13.366348 0.000168
											}
										}
									}
								}
							}
						}
					}
				}
			}
		}
	}
}
MOTION
Frames: 4
Frame Time: 0.033333
0.000000 0.000000 0.000000 0.000008 0.000000 -0.000000 -0.000000 0.000000 -0.000000 86.704682 -178.331677 -1.873912 0.003485 0.000000 -0.000021 2.266120 -3.442236 4.971074 2.861692 -5.965689 23.765058 -1.200325 2.995691 21.241540 -0.135341 1.015750 11.723579 0.203952 -1.572311 6.770905 -1.273624 -9.946746 10.122147 17.421668 8.124528 5.496431 7.895426 -2.628285 -43.048241 -1.524208 -0.187866 7.782963 -11.593887 -27.149894 -44.540415 -1.250700 -0.064064 5.863912 0.000101 -0.000137 0.000007 12.042495 -1.190049 42.709388 -11.495204 8.027700 -76.039041 1.667856 0.216586 8.524248 13.050149 -26.522296 -34.882555 -0.417022 -0.012681 -1.950524 -0.008414 0.019450 -0.033363 5.986578 2.494028 -34.016418 0.917529 -0.020777 6.784381 0.083464 -0.095008 0.018171 1.641935 3.059164 -34.023867 0.000079 -0.000113 -0.000057 -0.000051 -0.014927 0.015040 -0.008342 0.000191 0.012255 -1.413265 0.440309 -0.258009 4.542733 -0.626449 0.177424 3.912963 0.385627 -36.927968 -2.802569 -2.753089 36.020543 2.901455 20.268137 -19.894389 1.461554 -2.250997 69.681945 -1.080076 -17.860434 -74.858873 2.427349 -2.251859 -49.876493 -1.002582 -0.004117 -0.069901 -0.793852 0.152328 -0.479425 -0.804177 0.123484 -0.482661 -2.946700 -2.617963 36.483906 -2.538528 10.146010 2.830315 -0.451325 1.462208 38.007127 -15.785465 -14.223223 -108.768215 -0.718753 2.617395 -54.133996 2.691641 2.076528 -0.752308 0.036566 0.063587 2.451862 -0.000913 0.100573 2.451956 -0.041481 -0.001038 0.050777 -0.146482 0.086040 -0.361130 0.890807 -0.927845 3.677401 -0.128000 1.499977 -8.993627 -0.044984 0.001625 0.046292 1.563188 0.282304 -4.594790 -1.638934 -1.248448 -7.198589 6.904768 8.539378 43.030332 -0.000042 0.000339 33.480064 -0.441792 -0.458732 -72.796143 -0.000060 -0.000070 -21.993959 0.000023 -0.000007 -0.026803 0.000019 -0.000022 0.012742 -0.000077 -0.000101 -34.639885 0.000034 0.000016 0.015163 0.000024 -0.000009 0.012723 -0.000057 -0.000068 -24.223474 0.000011 -0.000012 -0.000046 -0.073039 0.030633 0.020255 7.191320 1.895091 7.525263 0.124837 -0.009499 -0.099907 0.024234 -0.030016 11.786611 -0.105462 -0.005191 -0.072515 0.023237 -0.032287 11.715998 0.089439 -0.130612 0.175099 0.050294 0.015085 11.755984 -0.154134 0.027269 -0.044365 0.050135 0.014756 11.743146 0.646557 0.597930 -1.496402 -0.002011 -0.023983 11.750622 0.000071 -0.000033 11.750677 
0.000000 0.000000 0.000000 0.000008 0.000000 -0.000000 -0.000000 0.000000 -0.000000 86.719456 -178.331854 -1.873447 0.003484 -0.000000 -0.000021 2.266120 -3.442237 4.971075 2.861692 -5.965687 23.765059 -1.200325 2.995690 21.241537 -0.135341 1.015751 11.723582 0.203952 -1.572310 6.770904 -1.273624 -9.946745 10.122145 17.445261 8.147147 5.500278 7.897088 -2.629663 -43.059060 -1.525007 -0.188026 7.787131 -11.605676 -27.177799 -44.549673 -1.250701 -0.064064 5.863914 0.000102 -0.000139 0.000008 12.020407 -1.192598 42.664753 -11.489324 8.008832 -75.939840 1.657025 0.214356 8.468286 13.061425 -26.520653 -34.885895 -0.407401 0.015600 -1.967391 -0.008409 0.019452 -0.033361 5.980510 2.467841 -34.014632 0.917529 -0.020777 6.784385 0.083461 -0.095006 0.018174 1.658652 3.091843 -34.025007 0.000080 -0.000113 -0.000053 -0.000051 -0.014927 0.015041 -0.008341 0.000196 0.012258 -1.413266 0.440315 -0.258006 4.549408 -0.639336 0.192127 3.912961 0.385628 -36.927968 -2.802562 -2.753115 36.020553 2.913803 20.227076 -19.955871 1.460257 -2.250471 69.647569 -1.080076 -17.860434 -74.858873 2.427351 -2.251860 -49.876497 -1.002583 -0.004215 -0.069889 -0.793878 0.152330 -0.479425 -0.804176 0.123486 -0.482656 -2.946700 -2.617965 36.483903 -2.543773 10.116803 2.830137 -0.451556 1.462529 38.016795 -15.785467 -14.223221 -108.768215 -0.718754 2.617394 -54.133996 2.691665 2.076562 -0.752309 0.036593 0.063587 2.451861 -0.000913 0.100572 2.451955 -0.041514 -0.001047 0.050748 -0.146486 0.086043 -0.361129 0.893945 -0.931999 3.692076 -0.128000 1.499976 -8.993620 -0.044992 0.001626 0.046279 1.563186 0.282305 -4.594794 -1.638933 -1.248447 -7.198594 6.888042 8.539009 43.039064 -0.000042 0.000339 33.480061 -0.441791 -0.458729 -72.796143 -0.000060 -0.000072 -21.993962 0.000023 -0.000008 -0.026807 0.000019 -0.000023 0.012742 -0.000077 -0.000100 -34.639882 0.000037 0.000017 0.015165 0.000025 -0.000010 0.012721 -0.000055 -0.000067 -24.223474 0.000011 -0.000012 -0.000050 -0.073036 0.030636 0.020257 7.150393 1.807336 7.543637 0.124839 -0.009497 -0.099905 0.024250 -0.030018 11.786631 -0.105457 -0.005195 -0.072515 0.023256 -0.032281 11.715973 0.089443 -0.130612 0.175100 0.050305 0.015106 11.755988 -0.154132 0.027270 -0.044371 0.050146 0.014776 11.743128 0.646560 0.597929 -1.496395 -0.001994 -0.024003 11.750633 0.000074 -0.000031 11.750675 
0.000000 0.000000 0.000000 0.000008 0.000000 -0.000000 -0.000000 0.000000 -0.000000 86.758791 -178.332401 -1.872196 0.003485 -0.000000 -0.000022 2.266122 -3.442251 4.971076 2.861692 -5.965689 23.765059 -1.200324 2.995688 21.241531 -0.135341 1.015750 11.723577 0.203952 -1.572311 6.770904 -1.273624 -9.946745 10.122146 17.495664 8.219022 5.503857 7.900277 -2.632343 -43.080035 -1.529578 -0.188902 7.810668 -11.644433 -27.260590 -44.575160 -1.250703 -0.064065 5.863913 0.000102 -0.000137 0.000005 12.035310 -1.210252 42.603264 -11.483526 7.990334 -75.842543 1.649414 0.212797 8.428960 13.044871 -26.523050 -34.880987 -0.397946 0.043326 -1.983921 -0.008412 0.019450 -0.033362 5.964032 2.396732 -34.013413 0.917529 -0.020777 6.784385 0.083457 -0.095007 0.018174 1.705998 3.182907 -34.028245 0.000079 -0.000113 -0.000053 -0.000051 -0.014928 0.015040 -0.008345 0.000192 0.012255 -1.413265 0.440318 -0.258009 4.555951 -0.651963 0.206530 3.912962 0.385628 -36.927968 -2.802560 -2.753114 36.020550 2.917461 20.081552 -20.029665 1.455528 -2.248541 69.522966 -1.080074 -17.860438 -74.858873 2.427348 -2.251861 -49.876493 -1.002654 -0.004213 -0.069906 -0.793907 0.152330 -0.479423 -0.804179 0.123486 -0.482661 -2.946698 -2.617965 36.483899 -2.558634 10.033719 2.822448 -0.452125 1.463305 38.040233 -15.785470 -14.223248 -108.768215 -0.718772 2.617415 -54.133989 2.691696 2.076525 -0.752339 0.036621 0.063602 2.451861 -0.000913 0.100575 2.451955 -0.041535 -0.001045 0.050775 -0.146484 0.086039 -0.361133 0.897017 -0.936060 3.706465 -0.127999 1.499977 -8.993617 -0.044992 0.001626 0.046278 1.563190 0.282304 -4.594795 -1.638934 -1.248447 -7.198594 6.847627 8.538107 43.060159 -0.000042 0.000335 33.480068 -0.441790 -0.458730 -72.796143 -0.000060 -0.000068 -21.993959 0.000023 -0.000009 -0.026805 0.000019 -0.000022 0.012740 -0.000077 -0.000101 -34.639878 0.000036 0.000015 0.015165 0.000024 -0.000012 0.012721 -0.000055 -0.000068 -24.223473 0.000014 -0.000012 -0.000046 -0.073037 0.030631 0.020256 7.110308 1.721307 7.561590 0.124839 -0.009506 -0.099907 0.024267 -0.030010 11.786654 -0.105460 -0.005197 -0.072513 0.023266 -0.032274 11.715955 0.089443 -0.130616 0.175102 0.050321 0.015131 11.755993 -0.154134 0.027267 -0.044368 0.050157 0.014800 11.743131 0.646561 0.597928 -1.496398 -0.001980 -0.024026 11.750635 0.000074 -0.000035 11.750675 
0.000000 0.000000 0.000000 0.000008 0.000000 -0.000000 -0.000000 0.000000 -0.000000 86.827059 -178.329518 -1.870261 0.003484 -0.000000 -0.000022 2.266121 -3.442250 4.971077 2.861690 -5.965689 23.765063 -1.200324 2.995688 21.241533 -0.135341 1.015751 11.723577 0.203952 -1.572310 6.770902 -1.273624 -9.946746 10.122147 17.596232 8.308819 5.513822 7.905954 -2.637081 -43.117181 -1.535711 -0.190099 7.842324 -11.705805 -27.387189 -44.613467 -1.250701 -0.064064 5.863912 0.000103 -0.000140 0.000006 12.081839 -1.240841 42.527363 -11.477637 7.971666 -75.744291 1.644032 0.211696 8.401158 13.028163 -26.525472 -34.876025 -0.388402 0.071325 -2.000644 -0.008412 0.019451 -0.033365 5.937274 2.281143 -34.012887 0.917532 -0.020777 6.784384 0.083456 -0.095007 0.018172 1.780014 3.329312 -34.030048 0.000080 -0.000113 -0.000053 -0.000051 -0.014927 0.015041 -0.008341 0.000193 0.012258 -1.413262 0.440319 -0.258009 4.562566 -0.664709 0.221076 3.912962 0.385628 -36.927971 -2.802579 -2.753127 36.020560 2.910176 19.837738 -20.117050 1.448015 -2.245435 69.324740 -1.080072 -17.860432 -74.858873 2.427351 -2.251864 -49.876493 -1.002570 -0.004215 -0.069885 -0.793959 0.152329 -0.479431 -0.804177 0.123485 -0.482657 -2.946700 -2.617964 36.483896 -2.585010 9.899014 2.814201 -0.453040 1.464554 38.078069 -15.785481 -14.223324 -108.768242 -0.718776 2.617413 -54.133969 2.691694 2.076611 -0.752321 0.036675 0.063614 2.451860 -0.000914 0.100573 2.451955 -0.041571 -0.001049 0.050800 -0.146484 0.086038 -0.361131 0.900129 -0.940169 3.721007 -0.127999 1.499976 -8.993623 -0.044992 0.001625 0.046277 1.563186 0.282302 -4.594791 -1.638934 -1.248446 -7.198589 6.774024 8.551658 43.090270 -0.000044 0.000338 33.480061 -0.441793 -0.458731 -72.796143 -0.000060 -0.000072 -21.993964 0.000019 -0.000007 -0.026807 0.000015 -0.000024 0.012743 -0.000079 -0.000103 -34.639882 0.000036 0.000017 0.015165 0.000024 -0.000010 0.012721 -0.000054 -0.000066 -24.223471 0.000012 -0.000010 -0.000050 -0.073037 0.030638 0.020257 7.069852 1.634419 7.579644 0.124835 -0.009502 -0.099904 0.024307 -0.029998 11.786696 -0.105462 -0.005191 -0.072515 0.023297 -0.032271 11.715914 0.089439 -0.130614 0.175104 0.050348 0.015178 11.756007 -0.154133 0.027270 -0.044367 0.050181 0.014847 11.743119 0.646558 0.597929 -1.496396 -0.001942 -0.024066 11.750628 0.000072 -0.000033 11.750677 
